<?xml version="1.0" encoding="UTF-8" standalone="no"?> <svg id="Line" xmlns="http://www.w3.org/2000/svg" viewBox="0 0 64 64"><title>1</title><path d="M13.81738,51.34033a5.5694,5.5694,0,0,0,.71442.4646l-.91022,3.05982c-1.36651,5.06224,6.0383,7.31863,7.667,2.26989L22.67633,52.46H41.32361l1.38733,4.67529A3.97371,3.97371,0,0,0,46.54,60a4.01836,4.01836,0,0,0,3.83784-5.13528l-.91041-3.06046c6.89247-4.60635,9.73689-13.48427,8.54811-18.4595-.6658-4.20891-5.39008-6.43818-8.45666-3.80789l1.68815-17.31763a5.14116,5.14116,0,0,0-3.3623-5.31153A47.961,47.961,0,0,0,31.999,4,47.71412,47.71412,0,0,0,16.12939,6.90674a5.104,5.104,0,0,0-3.36474,5.31445l1.67767,17.3172c-3.06-2.62972-7.79238-.4072-8.45824,3.80587C4.89648,38.26074,7.27148,46.23828,13.81738,51.34033Zm5.5542,5.22412a1.99813,1.99813,0,0,1-3.833-1.12947l.895-3.0092a5.24877,5.24877,0,0,0,.59668.03418h3.56006ZM47.12207,57.919a1.99232,1.99232,0,0,1-2.49316-1.35352L43.41016,52.46c.43878-.01536,3.8025.03544,4.15622-.03417l.89456,3.00927A2.00817,2.00817,0,0,1,47.12207,57.919ZM16.80859,8.7876a43.73863,43.73863,0,0,1,30.39258.00031,3.14017,3.14017,0,0,1,2.05567,3.23992l-2.3125,23.71778a1.74363,1.74363,0,0,1-2.01661.998A58.08276,58.08276,0,0,0,32,35.18018a58.0768,58.0768,0,0,0-12.93066,1.56445,1.723,1.723,0,0,1-2.01758-1.00928L14.75439,12.023A3.11017,3.11017,0,0,1,16.80859,8.7876ZM7.937,33.77588c.30933-2.19978,2.6147-4.3124,4.93662-2.94138,1.32568.743,1.78126,3.34237,2.299,5.58161a3.72122,3.72122,0,0,0,4.41477,2.26015A57.13028,57.13028,0,0,1,32,37.18018a57.0315,57.0315,0,0,1,12.40918,1.49511A3.72086,3.72086,0,0,0,48.87109,36.314c.40938-2.18135,1.04574-4.84479,2.25506-5.47938,2.30008-1.3702,4.63554.73918,4.93721,2.94184C57.03223,38.15576,54.6377,45.332,48.958,49.75928a3.22625,3.22625,0,0,1-1.98828.70069H42.07031c-3.59679.00148-21.85256-.00107-25.04,0a3.22536,3.22536,0,0,1-1.98535-.69873C9.3623,45.332,6.96826,38.15527,7.937,33.77588Z"/><path d="M21.01758,31.88184a1.00178,1.00178,0,0,0,.77588.1914A67.89694,67.89694,0,0,1,32,31.18018a67.91034,67.91034,0,0,1,10.207.894,1.00624,1.00624,0,0,0,1.16308-.88869l1.76075-18.06444a.99959.99959,0,0,0-.6875-1.04882A41.47779,41.47779,0,0,0,31.999,10a41.58651,41.58651,0,0,0-12.43066,2.07227.99938.99938,0,0,0-.68848,1.04785l1.75,18.06347A.99724.99724,0,0,0,21.01758,31.88184ZM31.999,12a38.99783,38.99783,0,0,1,11.0625,1.73584L41.4834,29.93262A70.72952,70.72952,0,0,0,32,29.18018a70.78867,70.78867,0,0,0-9.48242.751L20.94873,13.73633A39.09093,39.09093,0,0,1,31.999,12Z"/></svg>