<?xml version="1.0" encoding="UTF-8" standalone="no"?> <svg width="64" height="64" viewBox="0 0 64 64" fill="none" xmlns="http://www.w3.org/2000/svg">
<path d="M27.979 14.979C31.0473 11.9179 35.1676 10.1426 39.4998 10.0149C43.832 9.88724 48.0498 11.4169 51.293 14.292L49.876 15.709C47.0096 13.2088 43.3015 11.889 39.5 12.0162C35.6986 12.1433 32.0869 13.7078 29.394 16.394C29.2118 16.5826 29.111 16.8352 29.1133 17.0974C29.1156 17.3596 29.2208 17.6104 29.4062 17.7958C29.5916 17.9812 29.8424 18.0864 30.1046 18.0887C30.3668 18.091 30.6194 17.9902 30.808 17.808C33.2476 15.3734 36.5534 14.0062 40 14.0062C43.4466 14.0062 46.7524 15.3734 49.192 17.808C49.3795 17.9955 49.6338 18.1008 49.899 18.1008C50.1642 18.1008 50.4185 17.9955 50.606 17.808L53.435 14.979C53.6225 14.7915 53.7278 14.5372 53.7278 14.272C53.7278 14.0068 53.6225 13.7525 53.435 13.565C49.869 10.0072 45.0373 8.00916 40 8.00916C34.9627 8.00916 30.131 10.0072 26.565 13.565C26.4695 13.6572 26.3933 13.7676 26.3409 13.8896C26.2885 14.0116 26.2609 14.1428 26.2597 14.2756C26.2586 14.4084 26.2839 14.5401 26.3342 14.663C26.3845 14.7859 26.4587 14.8975 26.5526 14.9914C26.6465 15.0853 26.7581 15.1595 26.881 15.2098C27.0039 15.2601 27.1356 15.2854 27.2684 15.2843C27.4012 15.2831 27.5324 15.2555 27.6544 15.2031C27.7764 15.1507 27.8867 15.0745 27.979 14.979V14.979Z" fill="black"/>
<path d="M44.243 23.757C44.5082 23.7569 44.7625 23.6516 44.95 23.464L47.778 20.636C47.9655 20.4485 48.0708 20.1942 48.0708 19.929C48.0708 19.6638 47.9655 19.4095 47.778 19.222C45.7135 17.1621 42.9163 16.0053 40 16.0053C37.0837 16.0053 34.2864 17.1621 32.222 19.222C32.0345 19.4095 31.9292 19.6638 31.9292 19.929C31.9292 20.1942 32.0345 20.4485 32.222 20.636L35.05 23.464C35.2375 23.6515 35.4918 23.7568 35.757 23.7568C36.0221 23.7568 36.2765 23.6515 36.464 23.464C37.4027 22.528 38.6743 22.0024 40 22.0024C41.3256 22.0024 42.5972 22.528 43.536 23.464C43.6286 23.5572 43.7388 23.6311 43.8601 23.6813C43.9815 23.7316 44.1116 23.7574 44.243 23.757ZM35.808 21.394L34.382 19.968C35.9786 18.6967 37.9591 18.0045 40 18.0045C42.0409 18.0045 44.0214 18.6967 45.618 19.968L44.192 21.394C42.981 20.4909 41.5107 20.003 40 20.003C38.4893 20.003 37.019 20.4909 35.808 21.394V21.394Z" fill="black"/>
<path d="M37 27C37 27.5933 37.1759 28.1734 37.5056 28.6667C37.8352 29.1601 38.3038 29.5446 38.852 29.7716C39.4001 29.9987 40.0033 30.0581 40.5853 29.9424C41.1672 29.8266 41.7018 29.5409 42.1213 29.1213C42.5409 28.7018 42.8266 28.1672 42.9424 27.5853C43.0581 27.0033 42.9987 26.4001 42.7716 25.8519C42.5446 25.3038 42.1601 24.8352 41.6667 24.5056C41.1734 24.1759 40.5933 24 40 24C39.2044 24 38.4413 24.3161 37.8787 24.8787C37.3161 25.4413 37 26.2044 37 27ZM41 27C41 27.1978 40.9414 27.3911 40.8315 27.5556C40.7216 27.72 40.5654 27.8482 40.3827 27.9239C40.2 27.9996 39.9989 28.0194 39.8049 27.9808C39.6109 27.9422 39.4327 27.847 39.2929 27.7071C39.153 27.5673 39.0578 27.3891 39.0192 27.1951C38.9806 27.0011 39.0004 26.8 39.0761 26.6173C39.1518 26.4346 39.28 26.2784 39.4444 26.1685C39.6089 26.0586 39.8022 26 40 26C40.2652 26 40.5196 26.1054 40.7071 26.2929C40.8946 26.4804 41 26.7348 41 27Z" fill="black"/>
<path d="M61.811 32.416C61.7185 32.2873 61.5967 32.1825 61.4557 32.1102C61.3146 32.0379 61.1585 32.0001 61 32H43C42.79 31.9999 42.5854 32.066 42.4151 32.1887C42.2447 32.3115 42.1173 32.4848 42.051 32.684L36.051 50.684C36.0009 50.8343 35.9873 50.9944 36.0112 51.151C36.0352 51.3077 36.096 51.4564 36.1887 51.5849C36.2813 51.7134 36.4032 51.8181 36.5443 51.8902C36.6854 51.9624 36.8415 52 37 52H46V53.475C43.6516 55.1095 40.8612 55.9902 38 56H37.6C35.2824 55.9999 33.0078 56.6263 31.017 57.813L30.251 57.302C28.978 56.4524 27.4814 56 25.951 56.002C25.6902 56.0005 25.4401 55.8978 25.2536 55.7156C25.067 55.5333 24.9585 55.2857 24.951 55.025L24.933 54H31C31.2652 54 31.5196 53.8946 31.7071 53.7071C31.8946 53.5195 32 53.2652 32 53V35.779L34.6 36.916C34.7521 36.9824 34.9184 37.0099 35.0838 36.9959C35.2493 36.982 35.4086 36.9271 35.5475 36.8363C35.6864 36.7454 35.8005 36.6213 35.8795 36.4753C35.9585 36.3293 35.9999 36.166 36 36V32C35.9999 31.8055 35.9431 31.6152 35.8365 31.4526C35.7299 31.2899 35.5783 31.1618 35.4 31.084L19.4 24.084C19.2738 24.0289 19.1377 24.0005 19 24.0005C18.8623 24.0005 18.7262 24.0289 18.6 24.084L2.6 31.084C2.42175 31.1618 2.27005 31.2899 2.16348 31.4526C2.05691 31.6152 2.0001 31.8055 2 32V36C2.00009 36.166 2.04149 36.3293 2.12049 36.4753C2.19949 36.6213 2.31358 36.7454 2.45249 36.8363C2.5914 36.9271 2.75075 36.982 2.91617 36.9959C3.08158 37.0099 3.24786 36.9824 3.4 36.916L19 30.091L21.23 31.067C21.351 31.1243 21.4823 31.1568 21.6161 31.1624C21.7499 31.168 21.8834 31.1467 22.0089 31.0998C22.1343 31.0528 22.2489 30.9811 22.3461 30.889C22.4433 30.7969 22.521 30.6862 22.5746 30.5635C22.6282 30.4407 22.6566 30.3085 22.6581 30.1746C22.6596 30.0407 22.6342 29.9079 22.5834 29.784C22.5326 29.6601 22.4575 29.5476 22.3624 29.4533C22.2673 29.359 22.1543 29.2848 22.03 29.235L19.4 28.084C19.2738 28.0289 19.1377 28.0005 19 28.0005C18.8623 28.0005 18.7262 28.0289 18.6 28.084L4 34.471V32.654L19 26.091L34 32.654V34.471L31.391 33.33L25.7 30.838C25.579 30.7806 25.4477 30.7482 25.3139 30.7426C25.1801 30.7369 25.0466 30.7582 24.9212 30.8052C24.7957 30.8521 24.6811 30.9238 24.5839 31.0159C24.4867 31.1081 24.409 31.2188 24.3554 31.3415C24.3018 31.4642 24.2734 31.5964 24.2719 31.7303C24.2704 31.8642 24.2958 31.9971 24.3466 32.121C24.3974 32.2449 24.4725 32.3573 24.5676 32.4516C24.6627 32.5459 24.7757 32.6202 24.9 32.67L30 34.9V52H27V45C27 44.7348 26.8946 44.4804 26.7071 44.2929C26.5196 44.1053 26.2652 44 26 44H12C11.7348 44 11.4804 44.1053 11.2929 44.2929C11.1054 44.4804 11 44.7348 11 45V52H8V38.25C8 37.9848 7.89464 37.7304 7.70711 37.5429C7.51957 37.3553 7.26522 37.25 7 37.25C6.73478 37.25 6.48043 37.3553 6.29289 37.5429C6.10536 37.7304 6 37.9848 6 38.25V53C6 53.2652 6.10536 53.5195 6.29289 53.7071C6.48043 53.8946 6.73478 54 7 54H13V57C13.0016 58.3256 13.5289 59.5964 14.4662 60.5338C15.4036 61.4711 16.6744 61.9984 18 62H24.4C26.7248 61.9992 29.0058 61.3678 31 60.173C32.9942 61.3678 35.2752 61.9992 37.6 62H47C47.2652 62 47.5196 61.8946 47.7071 61.7071C47.8946 61.5195 48 61.2652 48 61V52H50V61C50 61.2652 50.1054 61.5195 50.2929 61.7071C50.4804 61.8946 50.7348 62 51 62C51.2652 62 51.5196 61.8946 51.7071 61.7071C51.8946 61.5195 52 61.2652 52 61V52H55C55.21 52 55.4146 51.934 55.5849 51.8112C55.7553 51.6884 55.8827 51.5152 55.949 51.316L59.009 42.135C59.0929 41.883 59.0734 41.608 58.9546 41.3705C58.8357 41.133 58.6275 40.9524 58.3755 40.8685C58.1235 40.7845 57.8486 40.8041 57.611 40.9229C57.3735 41.0417 57.1929 41.25 57.109 41.502L56.279 44H52.388L53.721 40H55C55.2652 40 55.5196 39.8946 55.7071 39.7071C55.8946 39.5195 56 39.2652 56 39C56 38.7348 55.8946 38.4804 55.7071 38.2929C55.5196 38.1053 55.2652 38 55 38H54.388L55.721 34H59.613L58.379 37.7C58.2952 37.9519 58.3149 38.2269 58.4338 38.4643C58.5527 38.7017 58.761 38.8822 59.013 38.966C59.265 39.0498 59.5399 39.0301 59.7773 38.9112C60.0147 38.7923 60.1952 38.5839 60.279 38.332L61.952 33.315C62.0013 33.1647 62.0142 33.0048 61.9897 32.8485C61.9652 32.6922 61.9039 32.544 61.811 32.416ZM21 46V48H17V46H21ZM13 46H15V49C15 49.2652 15.1054 49.5195 15.2929 49.7071C15.4804 49.8946 15.7348 50 16 50H22C22.2652 50 22.5196 49.8946 22.7071 49.7071C22.8946 49.5195 23 49.2652 23 49V46H25V52H13V46ZM18 60C17.2044 60 16.4413 59.6839 15.8787 59.1213C15.3161 58.5587 15 57.7956 15 57V54H22.933L22.957 55.067C22.9785 55.8496 23.3036 56.5932 23.8634 57.1406C24.4233 57.6879 25.1741 57.9961 25.957 58C27.0712 58.0006 28.1612 58.3255 29.094 58.935C27.6286 59.6363 26.0246 60.0002 24.4 60H18ZM33.048 59C34.4751 58.3413 36.0282 58.0001 37.6 58H38C40.8095 57.99 43.5676 57.245 46 55.839V60H37.6C36.0282 59.9999 34.4751 59.6587 33.048 59V59ZM43.721 34H47.612L46.279 38H42.387L43.721 34ZM41.721 40H45.612L44.279 44H40.387L41.721 40ZM39.721 46H43.612L42.279 50H38.387L39.721 46ZM44.388 50L45.721 46H49.612L48.279 50H44.388ZM55.613 46L54.279 50H50.388L51.721 46H55.613ZM50.279 44H46.388L47.721 40H51.612L50.279 44ZM52.279 38H48.388L49.721 34H53.612L52.279 38Z" fill="black"/>
<path d="M14 37C13.7348 37 13.4804 37.1054 13.2929 37.2929C13.1054 37.4804 13 37.7348 13 38V39H12C11.7348 39 11.4804 39.1054 11.2929 39.2929C11.1054 39.4804 11 39.7348 11 40C11 40.2652 11.1054 40.5196 11.2929 40.7071C11.4804 40.8946 11.7348 41 12 41H13V42C13 42.2652 13.1054 42.5196 13.2929 42.7071C13.4804 42.8946 13.7348 43 14 43C14.2652 43 14.5196 42.8946 14.7071 42.7071C14.8946 42.5196 15 42.2652 15 42V41H16C16.2652 41 16.5196 40.8946 16.7071 40.7071C16.8946 40.5196 17 40.2652 17 40C17 39.7348 16.8946 39.4804 16.7071 39.2929C16.5196 39.1054 16.2652 39 16 39H15V38C15 37.7348 14.8946 37.4804 14.7071 37.2929C14.5196 37.1054 14.2652 37 14 37Z" fill="black"/>
<path d="M26 41C26.2652 41 26.5196 40.8946 26.7071 40.7071C26.8946 40.5196 27 40.2652 27 40C27 39.7348 26.8946 39.4804 26.7071 39.2929C26.5196 39.1054 26.2652 39 26 39H22C21.7348 39 21.4804 39.1054 21.2929 39.2929C21.1054 39.4804 21 39.7348 21 40C21 40.2652 21.1054 40.5196 21.2929 40.7071C21.4804 40.8946 21.7348 41 22 41H26Z" fill="black"/>
</svg>
