<svg xmlns="http://www.w3.org/2000/svg" viewBox="0 0 64 64"><g id="IP_6-7" data-name="IP 6-7"><path d="M41.58,3.5H22.42A5.92,5.92,0,0,0,16.5,9.42V54.58a5.92,5.92,0,0,0,5.92,5.92H41.58a5.92,5.92,0,0,0,5.92-5.92V9.42A5.92,5.92,0,0,0,41.58,3.5ZM46.5,54.58a4.93,4.93,0,0,1-4.92,4.92H22.42a4.93,4.93,0,0,1-4.92-4.92V9.42A4.93,4.93,0,0,1,22.42,4.5H41.58A4.93,4.93,0,0,1,46.5,9.42Z"/><path d="M17.92,10.5V52a.5.5,0,0,0,.5.5H45.58a.5.5,0,0,0,.5-.5V10.5a.5.5,0,0,0-.5-.5H18.42A.5.5,0,0,0,17.92,10.5Zm1,.5H45.08V51.5H18.92Z"/><path d="M29,8h6a.5.5,0,0,0,0-1H29a.5.5,0,0,0,0,1Z"/><path d="M27.27,8h.17a.5.5,0,0,0,0-1h-.17a.5.5,0,1,0,0,1Z"/><path d="M32,53a3,3,0,1,0,3,3A3,3,0,0,0,32,53Zm0,5a2,2,0,1,1,2-2A2,2,0,0,1,32,58Z"/></g></svg>